HIERARCHY
ROOT Hips
{
	OFFSET 0.000000 0.000000 0.000000
	CHANNELS 6 Xposition Yposition Zposition Zrotation Yrotation Xrotation 
	JOINT LHipJoint
	{
		OFFSET 0.000000 0.000000 0.000000
		CHANNELS 3 Zrotation Yrotation Xrotation
		JOINT LeftUpLeg
		{
			OFFSET 1.363060 -1.794630 0.839290
			CHANNELS 3 Zrotation Yrotation Xrotation
			JOINT LeftLeg
			{
				OFFSET 2.448110 -6.726130 0.000000
				CHANNELS 3 Zrotation Yrotation Xrotation
				JOINT LeftFoot
				{
					OFFSET 2.562200 -7.039590 0.000000
					CHANNELS 3 Zrotation Yrotation Xrotation
					JOINT LeftToeBase
					{
						OFFSET 0.157640 -0.433110 2.322550
						CHANNELS 3 Zrotation Yrotation Xrotation
						End Site
						{
							OFFSET 0.000000 0.000000 0.000000
						}
					}
				}
			}
		}
	}
	JOINT RHipJoint
	{
		OFFSET 0.000000 0.000000 0.000000
		CHANNELS 3 Zrotation Yrotation Xrotation
		JOINT RightUpLeg
		{
			OFFSET -1.305520 -1.794630 0.839290
			CHANNELS 3 Zrotation Yrotation Xrotation
			JOINT RightLeg
			{
				OFFSET -2.542530 -6.985550 0.000000
				CHANNELS 3 Zrotation Yrotation Xrotation
				JOINT RightFoot
				{
					OFFSET -2.568260 -7.056230 0.000000
					CHANNELS 3 Zrotation Yrotation Xrotation
					JOINT RightToeBase
					{
						OFFSET -0.164730 -0.452590 2.363150
						CHANNELS 3 Zrotation Yrotation Xrotation
						End Site
						{
							OFFSET 0.000000 0.000000 0.000000
						}
					}
				}
			}
		}
	}
	JOINT LowerBack
	{
		OFFSET 0.000000 0.000000 0.000000
		CHANNELS 3 Zrotation Yrotation Xrotation
		JOINT Spine
		{
			OFFSET 0.028270 2.035590 -0.193380
			CHANNELS 3 Zrotation Yrotation Xrotation
			JOINT Spine1
			{
				OFFSET 0.056720 2.048850 -0.042750
				CHANNELS 3 Zrotation Yrotation Xrotation
				JOINT Neck
				{
					OFFSET 0.000000 0.000000 0.000000
					CHANNELS 3 Zrotation Yrotation Xrotation
					JOINT Neck1
					{
						OFFSET -0.054170 1.746240 0.172020
						CHANNELS 3 Zrotation Yrotation Xrotation
						JOINT Head
						{
							OFFSET 0.104070 1.761360 -0.123970
							CHANNELS 3 Zrotation Yrotation Xrotation
							End Site
							{
								OFFSET 0.000000 0.000000 0.000000
							}
						}
					}
				}
				JOINT LeftShoulder
				{
					OFFSET 0.000000 0.000000 0.000000
					CHANNELS 3 Zrotation Yrotation Xrotation
					JOINT LeftArm
					{
						OFFSET 3.362410 1.200890 -0.311210
						CHANNELS 3 Zrotation Yrotation Xrotation
						JOINT LeftForeArm
						{
							OFFSET 4.983000 -0.000000 -0.000000
							CHANNELS 3 Zrotation Yrotation Xrotation
							JOINT LeftHand
							{
								OFFSET 3.483560 -0.000000 -0.000000
								CHANNELS 3 Zrotation Yrotation Xrotation
								JOINT LeftFingerBase
								{
									OFFSET 0.000000 0.000000 0.000000
									CHANNELS 3 Zrotation Yrotation Xrotation
									JOINT LeftHandIndex1
									{
										OFFSET 0.715260 -0.000000 -0.000000
										CHANNELS 3 Zrotation Yrotation Xrotation
										End Site
										{
											OFFSET 0.000000 0.000000 0.000000
										}
									}
								}
								JOINT LThumb
								{
									OFFSET 0.000000 0.000000 0.000000
									CHANNELS 3 Zrotation Yrotation Xrotation
									End Site
									{
										OFFSET 0.000000 0.000000 0.000000
									}
								}
							}
						}
					}
				}
				JOINT RightShoulder
				{
					OFFSET 0.000000 0.000000 0.000000
					CHANNELS 3 Zrotation Yrotation Xrotation
					JOINT RightArm
					{
						OFFSET -3.136600 1.374050 -0.404650
						CHANNELS 3 Zrotation Yrotation Xrotation
						JOINT RightForeArm
						{
							OFFSET -5.241900 -0.000000 -0.000000
							CHANNELS 3 Zrotation Yrotation Xrotation
							JOINT RightHand
							{
								OFFSET -3.444170 -0.000000 -0.000000
								CHANNELS 3 Zrotation Yrotation Xrotation
								JOINT RightFingerBase
								{
									OFFSET 0.000000 0.000000 0.000000
									CHANNELS 3 Zrotation Yrotation Xrotation
									JOINT RightHandIndex1
									{
										OFFSET -0.622530 -0.000000 -0.000000
										CHANNELS 3 Zrotation Yrotation Xrotation
										End Site
										{
											OFFSET 0.000000 0.000000 0.000000
										}
									}
								}
								JOINT RThumb
								{
									OFFSET 0.000000 0.000000 0.000000
									CHANNELS 3 Zrotation Yrotation Xrotation
									End Site
									{
										OFFSET 0.000000 0.000000 0.000000
									}
								}
							}
						}
					}
				}
			}
		}
	}
}
MOTION
Frames: 5
Frame Time: 0.008333
5.371871 15.250269 2.264523 -138.130307 -83.524391 -163.372747 -8.831491 -0.125321 3.235658 -9.038574 -8.668682 -90.161534 -2.107567 4.317463 56.089258 3.034395 4.568375 -27.633336 -2.143400 0.000000 -26.823600 8.244256 0.387303 2.989937 16.382034 7.481973 -94.946611 3.518332 -6.986878 56.346924 -0.273429 3.614475 -15.122104 0.032200 -0.000000 -73.035299 3.252047 -1.812147 -2.270802 0.070074 -2.102278 -3.331915 -5.432574 -2.191404 0.497083 8.513028 -11.356935 -12.144509 -2.361036 -0.078660 -1.955400 0.000000 0.000000 0.000000 4.963459 11.602678 2.521501 -51.959950 -4.290719 2.435666 -178.968722 -78.510416 179.965453 2.070970 8.801353 0.168970 -0.179490 0.268831 0.000000 0.000000 0.000000 0.000000 0.000000 0.000000 0.000000 10.379621 -6.576438 3.344970 70.170907 -2.839317 6.502480 1.529105 49.750656 -0.000390 -3.882932 8.881198 -0.319555 0.111558 -0.288331 0.000000 0.000000 0.000000 0.000000 0.000000 0.000000 0.000000 
5.293957 15.154226 2.244781 -140.481370 -83.741928 -160.708139 -8.872408 -0.157988 3.316966 -8.888099 -9.207319 -90.932380 -1.938272 4.446997 57.754376 3.159095 4.859894 -28.532905 -2.343400 0.000000 -27.271100 8.222978 0.560956 3.069539 15.490551 7.468306 -95.836107 3.259360 -7.101116 58.017641 -0.323435 3.690262 -16.025975 0.044300 0.000000 -72.262101 3.183074 -1.901230 -2.466959 0.070375 -2.195537 -3.369970 -5.401219 -2.286314 0.533281 8.737341 -11.768030 -12.401427 -2.340339 -0.073126 -2.031718 0.000000 0.000000 0.000000 5.052874 11.771711 2.515328 -52.458424 -3.347650 2.679783 -178.954167 -78.215386 179.966646 1.939509 8.913168 0.160963 -0.174494 0.263884 0.000000 0.000000 0.000000 0.000000 0.000000 0.000000 0.000000 10.629707 -6.992170 3.364416 69.847780 -3.125695 6.533848 1.543355 50.046031 0.000037 -3.826986 8.721304 -0.309648 0.113638 -0.286317 0.000000 0.000000 0.000000 0.000000 0.000000 0.000000 0.000000 
5.216901 15.050622 2.224372 -143.384124 -83.988396 -157.492572 -8.923675 -0.205078 3.396456 -8.754010 -9.793700 -91.743365 -1.756096 4.582088 59.514280 3.281541 5.163460 -29.419593 -2.551700 -0.000000 -27.758100 8.190228 0.747488 3.140538 14.542614 7.399813 -96.779154 2.980221 -7.223485 59.851395 -0.388148 3.744640 -17.063066 0.056300 -0.000000 -71.400000 3.083524 -1.999526 -2.654170 0.063573 -2.296109 -3.407069 -5.368849 -2.388844 0.563551 8.973670 -12.181611 -12.658295 -2.317894 -0.067337 -2.108871 0.000000 0.000000 0.000000 5.110366 11.914155 2.512727 -52.961678 -2.395140 2.941429 -178.949927 -78.011776 179.967215 1.885776 9.054765 0.159258 -0.170825 0.258297 0.000000 0.000000 0.000000 0.000000 0.000000 0.000000 0.000000 10.897128 -7.418412 3.386940 69.505041 -3.407915 6.600754 1.559555 50.332659 0.000632 -3.747164 8.623069 -0.300138 0.115507 -0.284743 0.000000 0.000000 0.000000 0.000000 0.000000 0.000000 0.000000 
5.140660 14.939909 2.203603 -146.898025 -84.253527 -153.662400 -8.986443 -0.270879 3.473229 -8.632393 -10.418220 -92.592190 -1.562599 4.721252 61.354476 3.401408 5.478597 -30.293131 -2.768100 0.000000 -28.254900 8.144310 0.936524 3.204807 13.572511 7.288688 -97.773946 2.686404 -7.352788 61.811569 -0.473234 3.745984 -18.211587 0.071400 -0.000000 -70.477100 2.959595 -2.107113 -2.831649 0.051117 -2.404277 -3.442658 -5.335415 -2.499224 0.589199 9.220993 -12.599807 -12.916052 -2.292950 -0.061196 -2.187344 0.000000 0.000000 0.000000 5.136699 12.036461 2.513208 -53.475540 -1.442794 3.217044 -178.955757 -77.902503 179.967336 1.899203 9.192443 0.162654 -0.168228 0.252872 0.000000 0.000000 0.000000 0.000000 0.000000 0.000000 0.000000 11.176930 -7.859182 3.412247 69.146884 -3.667471 6.707818 1.579313 50.584890 0.001506 -3.639396 8.638444 -0.292329 0.117144 -0.283960 0.000000 0.000000 0.000000 0.000000 0.000000 0.000000 0.000000 
5.065150 14.822709 2.182718 -151.224770 -84.530913 -149.013877 -9.062307 -0.360750 3.547786 -8.525608 -11.084573 -93.470716 -1.359550 4.861731 63.257774 3.520063 5.809640 -31.157552 -2.994900 0.000000 -28.713800 8.083407 1.117061 3.263006 12.605486 7.133608 -98.825595 2.381638 -7.490005 63.869434 -0.582161 3.671436 -19.447966 0.094600 -0.000000 -69.506300 2.810460 -2.227858 -3.000109 0.032671 -2.523886 -3.477840 -5.301433 -2.621356 0.607108 9.474846 -12.988723 -13.168859 -2.269190 -0.055120 -2.265610 0.000000 0.000000 0.000000 5.135119 12.145536 2.519704 -54.008911 -0.497732 3.504267 -178.971281 -77.899428 179.967194 1.967168 9.286265 0.169654 -0.166502 0.248578 0.000000 0.000000 0.000000 0.000000 0.000000 0.000000 0.000000 11.470073 -8.280184 3.438525 68.785270 -3.933728 6.799382 1.601402 50.803204 0.002760 -3.491699 8.812147 -0.286315 0.118243 -0.284351 0.000000 0.000000 0.000000 0.000000 0.000000 0.000000 0.000000 
